<svg width="85" height="85" viewBox="0 0 85 85" fill="none" xmlns="http://www.w3.org/2000/svg">
<g clip-path="url(#clip0_101_406)">
<path d="M59.1098 24.5815L35.486 13.7634C35.486 13.7634 32.0466 10.7055 28.904 14.4471C27.607 15.9912 27.3253 17.7172 27.3253 17.7172L21.4105 54.4277C20.9383 57.8264 25.0756 58.9251 25.0756 58.9251L56.6491 66.8292L56.5252 65.2742C57.1858 64.0869 58.6597 62.0988 61.2297 61.8553C61.2871 61.8497 61.329 61.8114 61.3787 61.7858L62.3376 62.1003L59.1098 24.5815ZM36.9859 30.3701L38.0967 22.0276L55.7904 29.7417L56.1263 37.3049L36.9859 30.3701ZM57.5243 62.6009C57.2003 62.8919 56.9064 63.1936 56.6582 63.4993L36.0859 58.1264L56.1083 64.2605C56.0267 64.3867 55.9432 64.5124 55.8743 64.6308L29.3702 57.9008L55.4525 65.4348L55.4266 65.4889L25.9487 57.8857C25.9332 57.8837 24.5447 57.5879 23.5828 56.7799C22.6323 55.9816 22.4501 54.996 23.0231 53.7657C24.4948 50.604 29.6664 52.4552 29.7441 52.4837L59.4811 61.3673C59.0834 61.523 58.7296 61.7241 58.3944 61.9396L39.0745 56.8277L57.5243 62.6009Z" fill="#9DA2C8"/>
<path fill-rule="evenodd" clip-rule="evenodd" d="M59.1098 24.5815L35.486 13.7634C35.486 13.7634 32.0466 10.7055 28.904 14.4471C27.607 15.9912 27.3253 17.7172 27.3253 17.7172L21.4105 54.4277C20.9383 57.8264 25.0756 58.9251 25.0756 58.9251L55.6237 66.5725L55.6255 66.5729L56.6491 66.8292L56.5252 65.2742C56.5608 65.2102 56.5988 65.1439 56.6391 65.0756C56.694 64.983 56.7532 64.8868 56.817 64.788C56.8275 64.7717 56.8382 64.7553 56.849 64.7389C56.8777 64.695 56.9074 64.6507 56.938 64.6059C57.0598 64.4276 57.1959 64.2433 57.3468 64.0584C57.4465 63.9361 57.5528 63.8136 57.6657 63.6924C57.8042 63.5436 57.9528 63.3968 58.1117 63.2548C58.215 63.1625 58.3227 63.0722 58.4349 62.9848C58.5726 62.8774 58.717 62.7744 58.8683 62.677C59.1554 62.4924 59.4674 62.3284 59.8052 62.195C60.1296 62.067 60.4779 61.9673 60.8511 61.9048C60.9746 61.8841 61.1007 61.8675 61.2297 61.8553C61.2597 61.8524 61.2855 61.8405 61.3103 61.8262C61.3191 61.8211 61.3278 61.8158 61.3365 61.8104C61.3503 61.8019 61.3641 61.7933 61.3787 61.7858L62.3376 62.1003L59.1098 24.5815ZM61.2172 60.7439L58.1634 25.248L34.9335 14.6102L34.8246 14.5134C34.8246 14.5134 34.8246 14.5134 34.8246 14.5134L34.809 14.5003C34.7927 14.4868 34.7648 14.4642 34.7262 14.4348C34.6486 14.3757 34.5295 14.2903 34.3761 14.1961C34.0652 14.0052 33.6365 13.7921 33.143 13.6752C32.6556 13.5597 32.1178 13.5404 31.5572 13.716C31 13.8906 30.3507 14.2794 29.6697 15.0902C29.1141 15.7517 28.7701 16.4603 28.5654 17.0101C28.4637 17.2832 28.3985 17.5114 28.3594 17.6668C28.34 17.7444 28.3272 17.8032 28.3197 17.8397C28.316 17.858 28.3136 17.8707 28.3124 17.8772L28.3117 17.8812L28.3115 17.8825L22.7565 52.36C23.8978 51.0759 25.6503 50.8671 26.9541 50.9295C28.4788 51.0025 29.8188 51.45 30.0548 51.5328L61.0965 60.8062L61.2172 60.7439ZM29.7441 52.4837C29.6664 52.4552 24.4948 50.604 23.0231 53.7657C22.4501 54.996 22.6323 55.9816 23.5828 56.7799C24.5447 57.5879 25.9332 57.8837 25.9487 57.8857L55.4266 65.4889L55.4525 65.4348L29.3702 57.9008L55.8743 64.6308C55.893 64.5986 55.9128 64.5659 55.9334 64.5328C55.9664 64.4796 56.0014 64.4253 56.0369 64.3706C56.045 64.358 56.0532 64.3455 56.0613 64.3329C56.077 64.3088 56.0927 64.2846 56.1083 64.2605L36.0859 58.1264L56.6582 63.4993C56.6833 63.4684 56.7089 63.4375 56.735 63.4066C56.7361 63.4053 56.7372 63.404 56.7383 63.4027C56.9362 63.1686 57.1601 62.9372 57.4029 62.7117C57.4429 62.6746 57.4833 62.6376 57.5243 62.6009L39.0745 56.8277L58.3944 61.9396C58.7296 61.7241 59.0834 61.523 59.4811 61.3673L29.7441 52.4837ZM37.2805 20.5809L56.7618 29.0743L57.1916 38.7545L36.6452 31.3103L36.9859 30.3701L56.1263 37.3049L55.7904 29.7417L38.0967 22.0276L36.9859 30.3701L35.9946 30.2381L37.2805 20.5809Z" fill="#6668AA"/>
</g>
<defs>
<clipPath id="clip0_101_406">
<rect width="60" height="60" fill="white" transform="translate(38.59) rotate(40.0283)"/>
</clipPath>
</defs>
</svg>
