<svg width="68" height="66" viewBox="0 0 68 66" fill="none" xmlns="http://www.w3.org/2000/svg">
<g clip-path="url(#clip0_101_404)">
<path d="M10.0026 16.4573C9.1219 17.6582 9.38147 19.3458 10.5824 20.2265L11.8871 21.1833C13.088 22.0641 14.7756 21.8045 15.6563 20.6036C16.5371 19.4026 16.2775 17.7151 15.0766 16.8344L13.7719 15.8775C12.5709 14.9968 10.8834 15.2563 10.0026 16.4573ZM29.4821 4.71534C27.9902 4.94481 26.9669 6.34024 27.1963 7.83211L27.5828 10.3449C27.8123 11.8368 29.2077 12.8602 30.6996 12.6307C32.1915 12.4013 33.2149 11.0058 32.9854 9.51395L32.5989 7.00112C32.3694 5.50924 30.974 4.48586 29.4821 4.71534ZM10.287 40.4643C11.7789 40.2348 12.8023 38.8394 12.5728 37.3475C12.3433 35.8556 10.9479 34.8322 9.45601 35.0617L6.81755 35.4675C5.32567 35.697 4.30229 37.0924 4.53176 38.5843C4.76123 40.0762 6.15666 41.0996 7.64853 40.8701L10.287 40.4643ZM44.4952 48.3882C44.3333 47.3359 44.7567 46.2914 45.5117 45.5407C47.0918 43.9696 48.3169 42.1265 49.1872 40.0113C50.2794 37.3567 50.6001 34.5637 50.1491 31.632C49.4663 27.1927 47.3128 23.6441 43.6887 20.9862C40.0645 18.3283 36.0327 17.3408 31.5934 18.0236C27.1541 18.7065 23.6055 20.86 20.9476 24.4841C18.2897 28.1083 17.3022 32.14 17.985 36.5793C18.4359 39.511 19.5602 42.0818 21.3577 44.2918C22.7917 46.0548 24.5228 47.4447 26.5513 48.4615C27.5172 48.9456 28.2533 49.823 28.4176 50.8909L29.3822 57.1622C29.802 59.8915 32.3549 61.7637 35.0842 61.3439L41.2825 60.3905C44.0118 59.9707 45.8841 57.4179 45.4643 54.6885L44.4952 48.3882ZM55.4164 30.7576C55.6459 32.2494 57.0413 33.2728 58.5332 33.0434L61.1716 32.6375C62.6635 32.408 63.6869 31.0126 63.4574 29.5207C63.228 28.0289 61.8325 27.0055 60.3406 27.235L57.7022 27.6408C56.2103 27.8703 55.1869 29.2657 55.4164 30.7576ZM46.8742 11.9309C45.9921 13.1336 46.2671 14.8258 47.4846 15.6874C48.6623 16.5207 50.2891 16.2672 51.1573 15.115L52.131 13.8229C53.0296 12.6304 52.7798 10.9333 51.5757 10.0502C50.3826 9.17521 48.706 9.43309 47.831 10.6262L46.8742 11.9309Z" fill="#9DA2C8"/>
<path fill-rule="evenodd" clip-rule="evenodd" d="M12.4785 20.377L11.1738 19.4201C10.4182 18.866 10.2549 17.8042 10.809 17.0487C11.3632 16.2931 12.4249 16.1298 13.1805 16.6839L14.4852 17.6407C15.2408 18.1949 15.4041 19.2566 14.85 20.0122C14.2958 20.7678 13.2341 20.9311 12.4785 20.377ZM28.5712 10.1929L28.1847 7.68009C28.0392 6.73408 28.6881 5.84922 29.6342 5.70371C30.5802 5.5582 31.465 6.20714 31.6105 7.15315L31.997 9.66597C32.1425 10.612 31.4936 11.4968 30.5476 11.6423C29.6016 11.7879 28.7167 11.1389 28.5712 10.1929ZM6.96957 36.4559L9.60803 36.0501C10.554 35.9046 11.4389 36.5535 11.5844 37.4995C11.7299 38.4455 11.081 39.3304 10.135 39.4759L7.49651 39.8817C6.5505 40.0272 5.66564 39.3783 5.52013 38.4323C5.37462 37.4863 6.02356 36.6014 6.96957 36.4559ZM48.2625 39.6308C47.4414 41.6263 46.2898 43.3569 44.8066 44.8316C43.8651 45.7677 43.2884 47.1201 43.5068 48.5403L44.4759 54.8406C44.8117 57.024 43.314 59.0663 41.1305 59.4022L34.9322 60.3556C32.7487 60.6914 30.7064 59.1936 30.3706 57.0102L29.406 50.7389C29.1842 49.2973 28.203 48.1708 26.9994 47.5675C25.0978 46.6143 23.4782 45.3141 22.1335 43.6608C20.4529 41.5945 19.3985 39.1908 18.9734 36.4273C18.3309 32.2503 19.2528 28.4859 21.754 25.0755C24.2552 21.6651 27.5685 19.6545 31.7455 19.012C35.9225 18.3695 39.6868 19.2915 43.0973 21.7926C46.5077 24.2938 48.5183 27.6071 49.1608 31.7841C49.585 34.542 49.283 37.1504 48.2625 39.6308ZM61.0196 31.6491L58.3811 32.055C57.4351 32.2005 56.5503 31.5515 56.4048 30.6055C56.2593 29.6595 56.9082 28.7747 57.8542 28.6292L60.4927 28.2233C61.4387 28.0778 62.3235 28.7268 62.469 29.6728C62.6146 30.6188 61.9656 31.5036 61.0196 31.6491ZM51.3323 13.2211L50.3587 14.5132C49.8158 15.2336 48.7986 15.3922 48.0623 14.8711C47.301 14.3324 47.129 13.2743 47.6806 12.5222L48.6374 11.2176C49.1858 10.4698 50.2366 10.3082 50.9843 10.8566C51.739 11.4101 51.8955 12.4737 51.3323 13.2211ZM10.5824 20.2265C9.38147 19.3458 9.1219 17.6582 10.0026 16.4573C10.8834 15.2563 12.5709 14.9968 13.7719 15.8775L15.0766 16.8344C16.2775 17.7151 16.5371 19.4026 15.6563 20.6036C14.7756 21.8045 13.088 22.0641 11.8871 21.1833L10.5824 20.2265ZM27.1963 7.83211C26.9669 6.34024 27.9902 4.94481 29.4821 4.71534C30.974 4.48586 32.3694 5.50924 32.5989 7.00112L32.9854 9.51395C33.2149 11.0058 32.1915 12.4013 30.6996 12.6307C29.2077 12.8602 27.8123 11.8368 27.5828 10.3449L27.1963 7.83211ZM12.5728 37.3475C12.8023 38.8394 11.7789 40.2348 10.287 40.4643L7.64853 40.8701C6.15666 41.0996 4.76123 40.0762 4.53176 38.5843C4.30229 37.0924 5.32567 35.697 6.81755 35.4675L9.45601 35.0617C10.9479 34.8322 12.3433 35.8556 12.5728 37.3475ZM45.5117 45.5407C44.7567 46.2914 44.3333 47.3359 44.4952 48.3882L45.4643 54.6885C45.8841 57.4179 44.0118 59.9707 41.2825 60.3905L35.0842 61.3439C32.3549 61.7637 29.802 59.8915 29.3822 57.1622L28.4176 50.8909C28.2533 49.823 27.5172 48.9456 26.5513 48.4615C24.5228 47.4447 22.7917 46.0548 21.3577 44.2918C19.5602 42.0818 18.4359 39.511 17.985 36.5793C17.3022 32.14 18.2897 28.1083 20.9476 24.4841C23.6055 20.86 27.1541 18.7065 31.5934 18.0236C36.0327 17.3408 40.0645 18.3283 43.6887 20.9862C47.3128 23.6441 49.4663 27.1927 50.1491 31.632C50.6001 34.5637 50.2794 37.3567 49.1872 40.0113C48.3169 42.1265 47.0918 43.9696 45.5117 45.5407ZM58.5332 33.0434C57.0413 33.2728 55.6459 32.2494 55.4164 30.7576C55.1869 29.2657 56.2103 27.8703 57.7022 27.6408L60.3406 27.235C61.8325 27.0055 63.228 28.0289 63.4574 29.5207C63.6869 31.0126 62.6635 32.408 61.1716 32.6375L58.5332 33.0434ZM47.4846 15.6874C46.2671 14.8258 45.9921 13.1336 46.8742 11.9309L47.831 10.6262C48.706 9.43309 50.3826 9.17521 51.5757 10.0502C52.7798 10.9333 53.0296 12.6304 52.131 13.8229L51.1573 15.115C50.2891 16.2672 48.6623 16.5207 47.4846 15.6874Z" fill="#6668AA"/>
</g>
<defs>
<clipPath id="clip0_101_404">
<rect width="60" height="56.9492" fill="white" transform="matrix(0.988376 -0.152026 -0.152026 -0.988376 8.65771 65.4087)"/>
</clipPath>
</defs>
</svg>
